<?xml version="1.0" encoding="UTF-8"?>
<svg id="Isolation_Mode" data-name="Isolation Mode" xmlns="http://www.w3.org/2000/svg" xmlns:xlink="http://www.w3.org/1999/xlink" viewBox="0 0 2446.42 459.71">
  <defs>
    <style>
      .cls-1 {
        fill: url(#New_Gradient_Swatch_8);
      }

      .cls-2 {
        fill: #fff;
      }

      .cls-3 {
        fill: url(#New_Gradient_Swatch_6);
      }

      .cls-4 {
        fill: #55ebff;
      }

      .cls-5 {
        fill: url(#New_Gradient_Swatch_7);
      }

      .cls-6 {
        fill: #25fd83;
      }
    </style>
    <linearGradient id="New_Gradient_Swatch_6" data-name="New Gradient Swatch 6" x1="-2881.92" y1="-2648.75" x2="-2881.07" y2="-2649.57" gradientTransform="translate(575041.49 -528325.73) scale(199.5 -199.5)" gradientUnits="userSpaceOnUse">
      <stop offset="0" stop-color="#55ebff"/>
      <stop offset="1" stop-color="#0062e7"/>
    </linearGradient>
    <linearGradient id="New_Gradient_Swatch_7" data-name="New Gradient Swatch 7" x1="-2864.44" y1="-2661.74" x2="-2864.44" y2="-2663.35" gradientTransform="translate(245300.01 -303301.09) scale(85.5 -114)" gradientUnits="userSpaceOnUse">
      <stop offset="0" stop-color="#55ebff"/>
      <stop offset="1" stop-color="#00ff76"/>
    </linearGradient>
    <linearGradient id="New_Gradient_Swatch_8" data-name="New Gradient Swatch 8" x1="-2872.42" y1="-2662.47" x2="-2871.39" y2="-2663.57" gradientTransform="translate(325692.45 -301501.08) scale(113.32 -113.32)" gradientUnits="userSpaceOnUse">
      <stop offset="0" stop-color="#0062e7"/>
      <stop offset="1" stop-color="#003174"/>
    </linearGradient>
  </defs>
  <path id="Path_125" data-name="Path 125" class="cls-3" d="m321.2,91.81v229.43H91.77C41.09,321.24,0,280.15,0,229.47s41.09-91.77,91.77-91.77h45.89v-45.89C137.66,41.12,178.75.03,229.43.03s91.77,41.09,91.77,91.77Z"/>
  <path id="Path_127" data-name="Path 127" class="cls-5" d="m458.86,229.47c-.15,50.62-41.15,91.62-91.77,91.77h-45.89v-182.44c7.07-.74,14.18-1.1,21.29-1.1h24.6c16.2-.01,32.1,4.3,46.07,12.51,28.24,16.42,45.64,46.59,45.7,79.26Z"/>
  <path id="Path_128" data-name="Path 128" class="cls-6" d="m321.2,321.24v45.89c.04,50.65-40.99,91.73-91.64,91.77-32.72.02-62.98-17.39-79.4-45.7-8.21-13.97-12.53-29.87-12.51-46.07v-24.6c0-7.11.36-14.22,1.1-21.29h182.44Z"/>
  <path id="Path_126" data-name="Path 126" class="cls-1" d="m321.2,138.79v182.44h-182.44c10.07-96.28,86.16-172.37,182.44-182.44Z"/>
  <path id="Ellipse_22" data-name="Ellipse 22" class="cls-4" d="m57.34.19c31.49,0,57.02,25.53,57.02,57.02s-25.53,57.02-57.02,57.02S.32,88.7.32,57.21,25.85.19,57.34.19Z"/>
  <g>
    <path class="cls-2" d="m612.62,161.01v-.88C612.62,72.54,678.09,0,769.21,0c49.98,0,81.83,16.37,110.59,40.25,3.54,3.1,7.08,7.96,7.08,14.15,0,9.29-8.4,17.25-17.69,17.25-4.87,0-8.85-2.21-11.5-3.98-23.89-21.23-50.87-35.39-88.91-35.39-68.56,0-119.88,55.74-119.88,126.95v.88c0,71.66,51.75,127.84,119.88,127.84,38.48,0,65.47-13.27,92.01-37.6,2.65-2.65,6.64-4.87,11.06-4.87,8.85,0,16.81,7.96,16.81,16.81,0,5.31-2.65,9.73-5.75,12.39-30.52,27.87-64.14,45.56-115.01,45.56-89.35,0-155.26-70.33-155.26-159.24Z"/>
    <path class="cls-2" d="m1023.15,233.11l-32.29,72.1c-3.1,7.52-8.85,11.94-16.81,11.94-8.85,0-15.92-7.08-15.92-15.92,0-2.65.44-5.75,2.21-9.29l125.63-274.7c4.42-9.73,11.06-15.48,22.12-15.48h1.77c10.62,0,17.69,5.75,21.67,15.48l125.63,274.25c1.33,3.1,2.21,6.19,2.21,8.85,0,9.29-7.52,16.81-16.81,16.81-8.4,0-14.16-5.75-17.25-12.83l-32.29-71.22-13.71-31.85-71.22-158.36-71.22,158.36-13.71,31.85Z"/>
    <path class="cls-2" d="m1575.88,317.29c-5.09,0-10.12-2.27-13.47-6.61l-75.24-97.5c-3.35-4.34-4.4-10.04-2.82-15.29,1.58-5.25,5.6-9.42,10.79-11.19,28.47-9.71,47.8-25.05,57.44-45.6,6.9-14.71,6.31-27.26,6.24-28.4-.07-.63-.08-.98-.08-1.64,0-29.57-10.41-50.49-30.94-62.18-16-9.11-32.78-9.67-33.69-9.69h-123.53v261.1c0,9.39-7.61,17-17,17s-17-7.61-17-17V22.18c0-9.39,7.61-17,17-17h140.65c2.6.01,25.44.47,48.92,13.32,22.53,12.33,49.37,38.27,49.59,91.86.32,4.69.75,22.24-8.38,42.97-7.69,17.44-23.65,40.09-56.74,56.61l61.7,79.95c5.74,7.43,4.36,18.11-3.07,23.84-3.09,2.39-6.75,3.54-10.38,3.54Z"/>
    <path class="cls-2" d="m1708.21,20.79c0-9.73,7.96-17.69,17.25-17.69s17.69,7.96,17.69,17.69v278.68c0,9.73-7.96,17.69-17.69,17.69s-17.25-7.96-17.25-17.69V20.79Z"/>
    <path class="cls-2" d="m1959.92,303.89l-119.43-275.58c-1.33-2.65-1.77-4.87-1.77-7.96,0-8.85,7.96-17.25,17.69-17.25,8.85,0,15.04,5.75,18.14,13.27l107.05,256.56,107.49-257.44c3.1-6.19,9.29-12.39,17.25-12.39,9.73,0,17.25,7.96,17.25,16.81,0,2.65-.44,4.87-1.33,7.08l-119.88,276.91c-3.98,8.85-10.17,14.6-20.35,14.6h-1.77c-10.17,0-16.81-5.75-20.35-14.6Z"/>
    <path class="cls-2" d="m2365.31,201.27l-71.22-158.36-71.22,158.36-13.71,31.85-32.29,72.1c-3.1,7.52-8.85,11.94-16.81,11.94-8.85,0-15.92-7.08-15.92-15.92,0-2.65.44-5.75,2.21-9.29l125.63-274.7c4.42-9.73,11.06-15.48,22.12-15.48h1.77c10.62,0,17.69,5.75,21.68,15.48l125.63,274.25c1.33,3.1,2.21,6.19,2.21,8.85,0,9.29-7.52,16.81-16.81,16.81-8.41,0-14.16-5.75-17.25-12.83l-32.29-71.22-13.71-31.85Z"/>
  </g>
  <g>
    <path class="cls-2" d="m628.38,387.49c0-2.14,1.73-3.98,3.88-3.98s3.98,1.84,3.98,3.98v27.44c3.47-5.71,8.98-10.3,18.05-10.3,12.75,0,20.2,8.57,20.2,21.12v29.28c0,2.24-1.73,3.98-3.88,3.98s-3.98-1.73-3.98-3.98v-27.34c0-9.79-5.3-15.91-14.59-15.91s-15.81,6.63-15.81,16.53v26.73c0,2.24-1.63,3.98-3.88,3.98s-3.98-1.73-3.98-3.98v-67.53Z"/>
    <path class="cls-2" d="m800.35,459.71c-14.49,0-26.32-11.12-26.32-27.44v-.2c0-15.2,10.71-27.44,25.3-27.44,15.61,0,24.48,12.75,24.48,26.72,0,2.14-1.73,3.67-3.67,3.67h-38.15c1.12,11.42,9.18,17.85,18.57,17.85,6.53,0,11.32-2.55,15.2-6.12.61-.51,1.33-.92,2.24-.92,1.94,0,3.47,1.53,3.47,3.37,0,.92-.41,1.84-1.22,2.55-5,4.79-10.92,7.96-19.89,7.96Zm15.61-30.5c-.82-9.59-6.32-17.95-16.83-17.95-9.18,0-16.12,7.65-17.14,17.95h33.97Z"/>
    <path class="cls-2" d="m919.79,443.18v-.2c0-11.12,9.18-17.04,22.54-17.04,6.73,0,11.53.92,16.22,2.24v-1.84c0-9.49-5.81-14.38-15.71-14.38-5.3,0-9.79,1.22-13.67,2.96-.51.2-1.02.31-1.43.31-1.84,0-3.47-1.53-3.47-3.37,0-1.63,1.12-2.86,2.14-3.26,5.2-2.24,10.51-3.57,17.24-3.57,7.45,0,13.16,1.94,17.04,5.81,3.57,3.57,5.41,8.67,5.41,15.4v28.87c0,2.24-1.63,3.88-3.77,3.88s-3.77-1.63-3.77-3.67v-4.79c-3.67,4.79-9.79,9.08-19.08,9.08-9.79,0-19.69-5.61-19.69-16.42Zm38.86-4.08v-5.1c-3.88-1.12-9.08-2.24-15.5-2.24-9.89,0-15.4,4.28-15.4,10.92v.2c0,6.63,6.12,10.51,13.26,10.51,9.69,0,17.65-5.92,17.65-14.28Z"/>
    <path class="cls-2" d="m1069.63,387.49c0-2.14,1.73-3.98,3.88-3.98s3.98,1.84,3.98,3.98v67.53c0,2.24-1.63,3.98-3.88,3.98s-3.98-1.73-3.98-3.98v-67.53Z"/>
    <path class="cls-2" d="m1184.58,444.51v-31.83h-4.28c-1.84,0-3.47-1.63-3.47-3.47,0-1.94,1.63-3.47,3.47-3.47h4.28v-12.45c0-2.14,1.63-3.98,3.88-3.98s3.98,1.84,3.98,3.98v12.45h13.67c1.94,0,3.57,1.63,3.57,3.47,0,1.94-1.63,3.47-3.57,3.47h-13.67v30.8c0,6.43,3.57,8.77,8.88,8.77,2.75,0,4.18-.71,4.79-.71,1.84,0,3.37,1.53,3.37,3.37,0,1.43-.92,2.55-2.24,3.06-2.24.92-4.69,1.43-7.75,1.43-8.47,0-14.89-4.18-14.89-14.89Z"/>
    <path class="cls-2" d="m1309.12,387.49c0-2.14,1.73-3.98,3.88-3.98s3.98,1.84,3.98,3.98v27.44c3.47-5.71,8.98-10.3,18.05-10.3,12.75,0,20.2,8.57,20.2,21.12v29.28c0,2.24-1.73,3.98-3.88,3.98s-3.98-1.73-3.98-3.98v-27.34c0-9.79-5.3-15.91-14.59-15.91s-15.81,6.63-15.81,16.53v26.73c0,2.24-1.63,3.98-3.88,3.98s-3.98-1.73-3.98-3.98v-67.53Z"/>
    <path class="cls-2" d="m1574.73,389.22c0-2.55,2.04-4.18,4.59-4.18s4.69,1.63,4.69,4.18v1.33c0,2.45-2.04,4.18-4.69,4.18s-4.59-1.73-4.59-4.18v-1.33Zm.71,19.99c0-2.14,1.73-3.98,3.88-3.98s3.98,1.73,3.98,3.98v45.8c0,2.24-1.63,3.98-3.88,3.98s-3.98-1.73-3.98-3.98v-45.8Z"/>
    <path class="cls-2" d="m1687.64,409.22c0-2.14,1.73-3.98,3.88-3.98s3.98,1.73,3.98,3.98v5.71c3.47-5.71,8.98-10.3,18.05-10.3,12.75,0,20.2,8.57,20.2,21.12v29.28c0,2.24-1.73,3.98-3.88,3.98s-3.98-1.73-3.98-3.98v-27.34c0-9.79-5.3-15.91-14.59-15.91s-15.81,6.63-15.81,16.53v26.73c0,2.24-1.63,3.98-3.88,3.98s-3.98-1.73-3.98-3.98v-45.8Z"/>
    <path class="cls-2" d="m1953.25,387.49c0-2.14,1.73-3.98,3.88-3.98s3.98,1.84,3.98,3.98v27.44c3.47-5.71,8.98-10.3,18.05-10.3,12.75,0,20.2,8.57,20.2,21.12v29.28c0,2.24-1.73,3.98-3.88,3.98s-3.98-1.73-3.98-3.98v-27.34c0-9.79-5.3-15.91-14.59-15.91s-15.81,6.63-15.81,16.53v26.73c0,2.24-1.63,3.98-3.88,3.98s-3.98-1.73-3.98-3.98v-67.53Z"/>
    <path class="cls-2" d="m2098.19,443.18v-.2c0-11.12,9.18-17.04,22.54-17.04,6.73,0,11.53.92,16.22,2.24v-1.84c0-9.49-5.81-14.38-15.71-14.38-5.3,0-9.79,1.22-13.67,2.96-.51.2-1.02.31-1.43.31-1.84,0-3.47-1.53-3.47-3.37,0-1.63,1.12-2.86,2.14-3.26,5.2-2.24,10.51-3.57,17.24-3.57,7.45,0,13.16,1.94,17.04,5.81,3.57,3.57,5.41,8.67,5.41,15.4v28.87c0,2.24-1.63,3.88-3.77,3.88s-3.77-1.63-3.77-3.67v-4.79c-3.67,4.79-9.79,9.08-19.07,9.08-9.79,0-19.69-5.61-19.69-16.42Zm38.86-4.08v-5.1c-3.88-1.12-9.08-2.24-15.5-2.24-9.89,0-15.4,4.28-15.4,10.92v.2c0,6.63,6.12,10.51,13.26,10.51,9.69,0,17.65-5.92,17.65-14.28Z"/>
    <path class="cls-2" d="m2247.31,409.22c0-2.14,1.73-3.98,3.88-3.98s3.98,1.73,3.98,3.98v5.71c3.47-5.71,8.98-10.3,18.05-10.3,12.75,0,20.2,8.57,20.2,21.12v29.28c0,2.24-1.73,3.98-3.88,3.98s-3.98-1.73-3.98-3.98v-27.34c0-9.79-5.3-15.91-14.59-15.91s-15.81,6.63-15.81,16.53v26.73c0,2.24-1.63,3.98-3.88,3.98s-3.98-1.73-3.98-3.98v-45.8Z"/>
    <path class="cls-2" d="m2446.42,455.02c0,2.24-1.73,3.98-3.88,3.98s-3.98-1.73-3.98-3.98v-7.14c-4.28,6.32-10.51,11.73-20.2,11.73-12.65,0-25.2-10-25.2-27.34v-.2c0-17.24,12.55-27.44,25.2-27.44,9.79,0,16.12,5.3,20.2,11.22v-28.36c0-2.24,1.63-3.98,3.88-3.98s3.98,1.73,3.98,3.98v67.53Zm-45.19-23.05v.2c0,12.44,8.67,20.4,18.57,20.4s19.07-8.26,19.07-20.4v-.2c0-12.14-9.28-20.3-19.07-20.3s-18.57,7.55-18.57,20.3Z"/>
  </g>
</svg>